<?xml version="1.0" encoding="UTF-8"?>
<!-- Created with Inkscape (http://www.inkscape.org/) -->
<svg width="514.65" height="186.78" version="1.1" viewBox="0 0 514.65 186.78" xmlns="http://www.w3.org/2000/svg">
 <defs>
  <clipPath id="clipPath5241">
   <path d="M 0,595.276 H 841.89 V 0 H 0 Z"/>
  </clipPath>
 </defs>
 <g transform="matrix(1.3333 0 0 -1.3333 -301.93 533.84)">
  <g fill="#323d42">
   <path d="m368.14 397.86h-140.08v2.518h140.08z"/>
   <path d="m368.72 260.3h-2.518v140.08h2.518z"/>
   <path d="m367.12 260.3h-140.08v2.518h140.08z"/>
   <path d="m228.97 260.3h-2.518v140.08h2.518z"/>
   <path d="m347.94 384.47h-100.71v2.518h100.71z"/>
   <path d="m347.94 379.44h-100.71v2.518h100.71z"/>
   <path d="m347.94 374.4h-100.71v2.518h100.71z"/>
   <path d="m347.94 369.36h-100.71v2.518h100.71z"/>
   <path d="m347.94 364.33h-100.71v2.518h100.71z"/>
   <path d="m347.94 359.29h-100.71v2.518h100.71z"/>
   <path d="m347.94 354.26h-100.71v2.518h100.71z"/>
   <path d="m312.69 344.19h-65.462v2.518h65.462z"/>
   <path d="m312.69 339.15h-65.462v2.518h65.462z"/>
   <path d="m312.69 334.12h-65.462v2.518h65.462z"/>
   <path d="m312.69 329.08h-65.462v2.518h65.462z"/>
   <path d="m312.69 324.04h-65.462v2.518h65.462z"/>
   <path d="m312.69 319.01h-65.462v2.518h65.462z"/>
   <path d="m312.69 313.97h-65.462v2.518h65.462z"/>
   <path d="m279.96 303.9h-32.731v2.518h32.731z"/>
   <path d="m279.96 298.87h-32.731v2.518h32.731z"/>
   <path d="m279.96 293.83h-32.731v2.518h32.731z"/>
   <path d="m279.96 288.8h-32.731v2.518h32.731z"/>
   <path d="m279.96 283.76h-32.731v2.518h32.731z"/>
   <path d="m279.96 278.72h-32.731v2.518h32.731z"/>
   <path d="m279.96 273.69h-32.731v2.518h32.731z"/>
  </g>
  <g clip-path="url(#clipPath5241)">
   <g transform="translate(391.58 294.3)">
    <path d="m0 0c1.441 0 1.945 0.288 1.945 1.513 0 1.279-0.468 1.568-1.964 1.568h-2.99v-3.081zm-0.595-3.099h-2.414v-4h-3.64v13.351h6.775c4.774 0 5.585-2.09 5.585-4.595 0-1.657-0.415-3.423-2.576-4.27l2.432-4.486h-4z" fill="#323d42"/>
   </g>
   <g transform="translate(404.73 300.55)">
    <path d="m0 0h10.63v-3.37h-6.901v-1.621h6.721v-3.261h-6.721v-1.874h6.973v-3.225h-10.702z" fill="#323d42"/>
   </g>
   <g transform="translate(422.97 300.55)">
    <path d="m0 0h4l5.207-7.063v7.063h3.567v-13.351h-3.441l-5.766 7.801v-7.801h-3.567z" fill="#323d42"/>
   </g>
   <g transform="translate(446.96 297.18)">
    <path d="m0 0h-4.432v3.37h12.612v-3.37h-4.432v-9.981h-3.748z" fill="#323d42"/>
   </g>
   <g transform="translate(469.9 288.86)">
    <path d="m0 0 1.874 2.685c1.333-0.919 3.026-1.46 4.81-1.46 2.541 0 2.649 0.36 2.649 1.099 0 0.667-0.883 0.829-2.775 1.063-3.91 0.487-5.711 1.243-5.711 4.252 0 3.19 1.873 4.27 5.927 4.27 3.045 0 4.793-0.72 5.802-1.368l-2.018-2.902c-0.775 0.523-2.433 1.028-3.82 1.028-1.946 0-2.18-0.289-2.18-0.938 0-0.756 0.955-0.864 2.955-1.117 3.333-0.432 5.513-1.027 5.513-4.108 0-2.72-1.369-4.359-6.234-4.359-2.973 0-5.351 0.738-6.792 1.855" fill="#323d42"/>
   </g>
   <g transform="translate(499.87 293.81)">
    <path d="m0 0c0 2.072-0.702 3.531-3.477 3.531-2.774 0-3.478-1.459-3.478-3.531s0.704-3.55 3.478-3.55c2.775 0 3.477 1.478 3.477 3.55m-10.72 0.072c0 5.135 3.009 6.882 7.243 6.882s7.261-1.747 7.261-6.882c0-5.153-3.027-6.901-7.261-6.901s-7.243 1.748-7.243 6.901" fill="#323d42"/>
   </g>
   <g transform="translate(510.81 300.55)">
    <path d="m0 0h3.729v-10.126h6.289v-3.225h-10.018z" fill="#323d42"/>
   </g>
   <g transform="translate(527.32 292.44)">
    <path d="m0 0v8.108h3.748v-7.603c0-1.82 0.36-2.721 2.721-2.721 2.324 0 2.72 0.811 2.72 2.721v7.603h3.622v-8.108c0-2.504-0.307-5.513-6.396-5.513-6.09 0-6.415 3.009-6.415 5.513" fill="#323d42"/>
   </g>
   <g transform="translate(551.23 297.18)">
    <path d="m0 0h-4.432v3.37h12.612v-3.37h-4.432v-9.981h-3.748z" fill="#323d42"/>
   </g>
   <path d="m566.39 300.55h3.73v-13.351h-3.73z" fill="#323d42"/>
   <g transform="translate(588.21 293.81)">
    <path d="m0 0c0 2.072-0.703 3.531-3.477 3.531-2.775 0-3.478-1.459-3.478-3.531s0.703-3.55 3.478-3.55c2.774 0 3.477 1.478 3.477 3.55m-10.72 0.072c0 5.135 3.009 6.882 7.243 6.882s7.261-1.747 7.261-6.882c0-5.153-3.027-6.901-7.261-6.901s-7.243 1.748-7.243 6.901" fill="#323d42"/>
   </g>
   <g transform="translate(599.15 300.55)">
    <path d="m0 0h4l5.207-7.063v7.063h3.567v-13.351h-3.441l-5.766 7.801v-7.801h-3.567z" fill="#323d42"/>
   </g>
   <g transform="translate(398.34 309.03)">
    <path d="m0 0h-12.909v64.719h38.814v-12.908h-25.905v-12.997h19.495v-12.909h-19.495v-12.996z" fill="#323d42"/>
   </g>
   <g transform="translate(441.16 321.94)">
    <path d="m0 0h12.997v38.902h-12.997v-19.407zm25.905 45.4v-51.81c0-1.816-0.614-3.337-1.844-4.567-1.288-1.288-2.81-1.932-4.566-1.932h-25.905c-1.816 0-3.337 0.644-4.567 1.932-1.288 1.23-1.932 2.751-1.932 4.567v51.81c0 1.756 0.644 3.278 1.932 4.566 1.23 1.23 2.751 1.845 4.567 1.845h25.905c1.756 0 3.278-0.615 4.566-1.845 1.23-1.288 1.844-2.81 1.844-4.566" fill="#323d42"/>
   </g>
   <g transform="translate(496.98 347.84)">
    <path d="m0 0v12.997h-12.997v-12.997zm6.499-6.41c1.755 0 3.277-0.645 4.565-1.932 1.23-1.23 1.845-2.753 1.845-4.567v-25.905h-12.909v25.905h-12.997v-25.905h-12.908v64.719h32.404c1.755 0 3.277-0.614 4.565-1.844 1.23-1.289 1.845-2.81 1.845-4.566v-19.495c0-1.756-0.615-3.279-1.845-4.566-1.288-1.23-2.81-1.844-4.565-1.844" fill="#323d42"/>
   </g>
   <g transform="translate(552.7 360.84)">
    <path d="m0 0h-12.909v-51.811h-12.996v51.811h-12.909v12.909h38.814z" fill="#323d42"/>
   </g>
   <g transform="translate(556.71 373.75)">
    <path d="m0 0h12.909v-64.719h-12.909v24.237z" fill="#323d42"/>
   </g>
   <g transform="translate(599.53 354.34)">
    <path d="m0 0v6.499h-12.997v-12.997h19.496c1.755 0 3.277-0.615 4.565-1.844 1.23-1.288 1.845-2.81 1.845-4.566v-25.905c0-1.816-0.615-3.337-1.845-4.567-1.288-1.288-2.81-1.932-4.565-1.932h-25.906c-1.815 0-3.337 0.644-4.566 1.932-1.289 1.23-1.932 2.751-1.932 4.567v12.908h12.908v-6.498h12.997v12.996h-19.407c-1.815 0-3.337 0.615-4.566 1.845-1.289 1.286-1.932 2.838-1.932 4.654v25.905c0 1.756 0.643 3.277 1.932 4.566 1.229 1.229 2.751 1.844 4.566 1.844h25.906c1.755 0 3.277-0.615 4.565-1.844 1.23-1.289 1.845-2.81 1.845-4.566v-12.997z" fill="#323d42"/>
   </g>
  </g>
 </g>
</svg>
